<mxfile host="app.diagrams.net" modified="2021-08-05T09:23:23.448Z" agent="5.0 (Windows NT 10.0; WOW64) AppleWebKit/537.36 (KHTML, like Gecko) Chrome/86.0.4240.198 Safari/537.36" etag="Fvibmy_iSFl7GFJaxi2p" version="14.9.3" type="github">
  <diagram id="WQcQk7RuDHnEBksjBNB8" name="Page-1">
    <mxGraphModel dx="1422" dy="756" grid="1" gridSize="10" guides="1" tooltips="1" connect="1" arrows="1" fold="1" page="1" pageScale="1" pageWidth="827" pageHeight="1169" math="0" shadow="0">
      <root>
        <mxCell id="0" />
        <mxCell id="1" parent="0" />
        <mxCell id="XY9Zo-zFPmOXI-2DgoHU-1" style="edgeStyle=orthogonalEdgeStyle;rounded=0;orthogonalLoop=1;jettySize=auto;html=1;fontSize=23;exitX=0.5;exitY=1;exitDx=0;exitDy=0;exitPerimeter=0;fillColor=#d5e8d4;strokeColor=#82b366;entryX=0;entryY=0.5;entryDx=0;entryDy=0;" edge="1" parent="1" source="XY9Zo-zFPmOXI-2DgoHU-2" target="XY9Zo-zFPmOXI-2DgoHU-7">
          <mxGeometry relative="1" as="geometry">
            <mxPoint x="220" y="240" as="targetPoint" />
            <Array as="points">
              <mxPoint x="279" y="580" />
              <mxPoint x="150" y="580" />
              <mxPoint x="150" y="240" />
            </Array>
          </mxGeometry>
        </mxCell>
        <mxCell id="XY9Zo-zFPmOXI-2DgoHU-2" value="frist-thread" style="rounded=0;whiteSpace=wrap;html=1;fillColor=#f5f5f5;strokeColor=#666666;fontColor=#333333;" vertex="1" parent="1">
          <mxGeometry x="234" y="360" width="90" height="180" as="geometry" />
        </mxCell>
        <mxCell id="XY9Zo-zFPmOXI-2DgoHU-3" style="edgeStyle=orthogonalEdgeStyle;rounded=0;orthogonalLoop=1;jettySize=auto;html=1;entryX=0.5;entryY=0;entryDx=0;entryDy=0;fontSize=23;fillColor=#f5f5f5;strokeColor=#E6E6E6;" edge="1" parent="1" source="XY9Zo-zFPmOXI-2DgoHU-7" target="XY9Zo-zFPmOXI-2DgoHU-2">
          <mxGeometry relative="1" as="geometry" />
        </mxCell>
        <mxCell id="XY9Zo-zFPmOXI-2DgoHU-4" style="edgeStyle=orthogonalEdgeStyle;rounded=0;orthogonalLoop=1;jettySize=auto;html=1;entryX=0.5;entryY=0;entryDx=0;entryDy=0;fontSize=23;fillColor=#d5e8d4;strokeColor=#82b366;" edge="1" parent="1" source="XY9Zo-zFPmOXI-2DgoHU-7" target="XY9Zo-zFPmOXI-2DgoHU-10">
          <mxGeometry relative="1" as="geometry" />
        </mxCell>
        <mxCell id="XY9Zo-zFPmOXI-2DgoHU-5" style="edgeStyle=orthogonalEdgeStyle;rounded=0;orthogonalLoop=1;jettySize=auto;html=1;entryX=0.5;entryY=0;entryDx=0;entryDy=0;fontSize=23;fillColor=#d5e8d4;strokeColor=#82b366;" edge="1" parent="1" source="XY9Zo-zFPmOXI-2DgoHU-7" target="XY9Zo-zFPmOXI-2DgoHU-11">
          <mxGeometry relative="1" as="geometry" />
        </mxCell>
        <mxCell id="XY9Zo-zFPmOXI-2DgoHU-6" style="edgeStyle=orthogonalEdgeStyle;rounded=0;orthogonalLoop=1;jettySize=auto;html=1;entryX=0.5;entryY=0;entryDx=0;entryDy=0;fontSize=23;fillColor=#d5e8d4;strokeColor=#82b366;" edge="1" parent="1" source="XY9Zo-zFPmOXI-2DgoHU-7" target="XY9Zo-zFPmOXI-2DgoHU-12">
          <mxGeometry relative="1" as="geometry" />
        </mxCell>
        <mxCell id="XY9Zo-zFPmOXI-2DgoHU-35" style="edgeStyle=orthogonalEdgeStyle;rounded=0;orthogonalLoop=1;jettySize=auto;html=1;entryX=0.383;entryY=0.967;entryDx=0;entryDy=0;entryPerimeter=0;dashed=1;fontSize=18;strokeColor=#82b366;fillColor=#d5e8d4;" edge="1" parent="1" source="XY9Zo-zFPmOXI-2DgoHU-7" target="XY9Zo-zFPmOXI-2DgoHU-23">
          <mxGeometry relative="1" as="geometry" />
        </mxCell>
        <mxCell id="XY9Zo-zFPmOXI-2DgoHU-7" value="&lt;font style=&quot;font-size: 20px;&quot;&gt;Master&lt;/font&gt;" style="rounded=0;whiteSpace=wrap;html=1;fontSize=20;" vertex="1" parent="1">
          <mxGeometry x="234" y="210" width="370" height="60" as="geometry" />
        </mxCell>
        <mxCell id="XY9Zo-zFPmOXI-2DgoHU-8" value="&lt;span style=&quot;color: rgb(51, 51, 51); font-family: arial, sans-serif; font-size: 29px; background-color: rgb(255, 255, 255);&quot;&gt;âˆž&lt;/span&gt;" style="ellipse;whiteSpace=wrap;html=1;aspect=fixed;fontSize=29;" vertex="1" parent="1">
          <mxGeometry x="259" y="480" width="40" height="40" as="geometry" />
        </mxCell>
        <mxCell id="XY9Zo-zFPmOXI-2DgoHU-9" value="&lt;span style=&quot;color: rgb(51 , 51 , 51) ; font-family: &amp;#34;helvetica neue&amp;#34; , &amp;#34;helvetica&amp;#34; , &amp;#34;arial&amp;#34; , &amp;#34;hiragino sans gb&amp;#34; , &amp;#34;hiragino sans gb w3&amp;#34; , &amp;#34;microsoft yahei ui&amp;#34; , &amp;#34;microsoft yahei&amp;#34; , sans-serif ; font-size: 23px&quot;&gt;Auto allocation&lt;/span&gt;" style="text;html=1;resizable=0;autosize=1;align=center;verticalAlign=middle;points=[];fillColor=none;strokeColor=none;rounded=0;fontSize=23;" vertex="1" parent="1">
          <mxGeometry x="334" y="50" width="170" height="30" as="geometry" />
        </mxCell>
        <mxCell id="XY9Zo-zFPmOXI-2DgoHU-10" value="second-thread" style="rounded=0;whiteSpace=wrap;html=1;" vertex="1" parent="1">
          <mxGeometry x="374" y="360" width="70" height="180" as="geometry" />
        </mxCell>
        <mxCell id="XY9Zo-zFPmOXI-2DgoHU-11" value="&lt;span style=&quot;color: rgb(51 , 51 , 51) ; font-family: &amp;#34;helvetica neue&amp;#34; , &amp;#34;helvetica&amp;#34; , &amp;#34;arial&amp;#34; , &amp;#34;hiragino sans gb&amp;#34; , &amp;#34;hiragino sans gb w3&amp;#34; , &amp;#34;microsoft yahei ui&amp;#34; , &amp;#34;microsoft yahei&amp;#34; , sans-serif ; font-size: 13px ; text-align: left&quot;&gt;thirdly&lt;/span&gt;-thread" style="rounded=0;whiteSpace=wrap;html=1;" vertex="1" parent="1">
          <mxGeometry x="464" y="360" width="70" height="180" as="geometry" />
        </mxCell>
        <mxCell id="XY9Zo-zFPmOXI-2DgoHU-12" value="&lt;span style=&quot;color: rgb(51 , 51 , 51) ; font-family: &amp;#34;helvetica neue&amp;#34; , &amp;#34;helvetica&amp;#34; , &amp;#34;arial&amp;#34; , &amp;#34;hiragino sans gb&amp;#34; , &amp;#34;hiragino sans gb w3&amp;#34; , &amp;#34;microsoft yahei ui&amp;#34; , &amp;#34;microsoft yahei&amp;#34; , sans-serif ; font-size: 13px ; text-align: left&quot;&gt;forth&lt;/span&gt;-thread" style="rounded=0;whiteSpace=wrap;html=1;" vertex="1" parent="1">
          <mxGeometry x="554" y="360" width="70" height="180" as="geometry" />
        </mxCell>
        <mxCell id="XY9Zo-zFPmOXI-2DgoHU-13" value="Running&lt;br style=&quot;font-size: 18px;&quot;&gt;20/1000" style="text;html=1;resizable=0;autosize=1;align=center;verticalAlign=middle;points=[];fillColor=#d5e8d4;strokeColor=#82b366;rounded=0;fontSize=18;dashed=1;" vertex="1" parent="1">
          <mxGeometry x="114" y="370" width="80" height="50" as="geometry" />
        </mxCell>
        <mxCell id="XY9Zo-zFPmOXI-2DgoHU-16" value="Task&amp;nbsp;" style="rounded=0;whiteSpace=wrap;html=1;dashed=1;fontSize=18;fillColor=#d5e8d4;strokeColor=#82b366;" vertex="1" parent="1">
          <mxGeometry x="369" y="495" width="80" height="30" as="geometry" />
        </mxCell>
        <mxCell id="XY9Zo-zFPmOXI-2DgoHU-17" value="Task" style="rounded=0;whiteSpace=wrap;html=1;dashed=1;fontSize=18;fillColor=#d5e8d4;strokeColor=#82b366;" vertex="1" parent="1">
          <mxGeometry x="459" y="495" width="80" height="30" as="geometry" />
        </mxCell>
        <mxCell id="XY9Zo-zFPmOXI-2DgoHU-18" value="Task" style="rounded=0;whiteSpace=wrap;html=1;dashed=1;fontSize=18;fillColor=#d5e8d4;strokeColor=#82b366;" vertex="1" parent="1">
          <mxGeometry x="549" y="495" width="80" height="30" as="geometry" />
        </mxCell>
        <mxCell id="XY9Zo-zFPmOXI-2DgoHU-19" style="edgeStyle=orthogonalEdgeStyle;rounded=0;orthogonalLoop=1;jettySize=auto;html=1;fontSize=18;strokeColor=#82b366;entryX=1;entryY=0.5;entryDx=0;entryDy=0;fillColor=#d5e8d4;dashed=1;" edge="1" parent="1" source="XY9Zo-zFPmOXI-2DgoHU-20" target="XY9Zo-zFPmOXI-2DgoHU-7">
          <mxGeometry relative="1" as="geometry">
            <mxPoint x="624" y="250" as="targetPoint" />
            <Array as="points">
              <mxPoint x="501" y="610" />
              <mxPoint x="714" y="610" />
              <mxPoint x="714" y="240" />
            </Array>
          </mxGeometry>
        </mxCell>
        <mxCell id="XY9Zo-zFPmOXI-2DgoHU-20" value="" style="shape=curlyBracket;whiteSpace=wrap;html=1;rounded=1;flipH=1;dashed=1;fontSize=18;direction=north;" vertex="1" parent="1">
          <mxGeometry x="398" y="541" width="206" height="55" as="geometry" />
        </mxCell>
        <mxCell id="XY9Zo-zFPmOXI-2DgoHU-21" value="&lt;span style=&quot;color: rgb(51 , 51 , 51) ; font-family: &amp;#34;helvetica neue&amp;#34; , &amp;#34;helvetica&amp;#34; , &amp;#34;arial&amp;#34; , &amp;#34;hiragino sans gb&amp;#34; , &amp;#34;hiragino sans gb w3&amp;#34; , &amp;#34;microsoft yahei ui&amp;#34; , &amp;#34;microsoft yahei&amp;#34; , sans-serif ; font-size: 13px&quot;&gt;Stop distribution&lt;/span&gt;" style="text;whiteSpace=wrap;html=1;fontSize=18;align=center;dashed=1;fillColor=#f5f5f5;strokeColor=#666666;fontColor=#333333;" vertex="1" parent="1">
          <mxGeometry x="254" y="290" width="130" height="40" as="geometry" />
        </mxCell>
        <mxCell id="XY9Zo-zFPmOXI-2DgoHU-22" value="&lt;span style=&quot;color: rgb(51 , 51 , 51) ; font-family: &amp;#34;helvetica neue&amp;#34; , &amp;#34;helvetica&amp;#34; , &amp;#34;arial&amp;#34; , &amp;#34;hiragino sans gb&amp;#34; , &amp;#34;hiragino sans gb w3&amp;#34; , &amp;#34;microsoft yahei ui&amp;#34; , &amp;#34;microsoft yahei&amp;#34; , sans-serif ; font-size: 13px ; text-align: left&quot;&gt;Available Thread ID&lt;/span&gt;" style="text;html=1;align=center;verticalAlign=middle;resizable=0;points=[];autosize=1;strokeColor=none;" vertex="1" parent="1">
          <mxGeometry x="169" y="135" width="130" height="20" as="geometry" />
        </mxCell>
        <mxCell id="XY9Zo-zFPmOXI-2DgoHU-36" style="edgeStyle=orthogonalEdgeStyle;rounded=0;orthogonalLoop=1;jettySize=auto;html=1;fontSize=18;strokeColor=#82b366;fillColor=#d5e8d4;" edge="1" parent="1" source="XY9Zo-zFPmOXI-2DgoHU-23">
          <mxGeometry relative="1" as="geometry">
            <mxPoint x="610" y="240" as="targetPoint" />
            <Array as="points">
              <mxPoint x="650" y="145" />
              <mxPoint x="650" y="240" />
            </Array>
          </mxGeometry>
        </mxCell>
        <mxCell id="XY9Zo-zFPmOXI-2DgoHU-23" value="" style="rounded=0;whiteSpace=wrap;html=1;" vertex="1" parent="1">
          <mxGeometry x="308" y="130" width="290" height="30" as="geometry" />
        </mxCell>
        <mxCell id="XY9Zo-zFPmOXI-2DgoHU-24" value="&lt;span&gt;second&lt;/span&gt;" style="rounded=0;whiteSpace=wrap;html=1;fillColor=#d5e8d4;strokeColor=#82b366;" vertex="1" parent="1">
          <mxGeometry x="317" y="135" width="50" height="20" as="geometry" />
        </mxCell>
        <mxCell id="XY9Zo-zFPmOXI-2DgoHU-25" value="&lt;span style=&quot;color: rgb(51 , 51 , 51) ; font-family: &amp;#34;helvetica neue&amp;#34; , &amp;#34;helvetica&amp;#34; , &amp;#34;arial&amp;#34; , &amp;#34;hiragino sans gb&amp;#34; , &amp;#34;hiragino sans gb w3&amp;#34; , &amp;#34;microsoft yahei ui&amp;#34; , &amp;#34;microsoft yahei&amp;#34; , sans-serif ; font-size: 13px ; text-align: left&quot;&gt;thirdly&lt;/span&gt;" style="rounded=0;whiteSpace=wrap;html=1;fillColor=#d5e8d4;strokeColor=#82b366;" vertex="1" parent="1">
          <mxGeometry x="372" y="135" width="50" height="20" as="geometry" />
        </mxCell>
        <mxCell id="XY9Zo-zFPmOXI-2DgoHU-26" value="&lt;span&gt;second&lt;/span&gt;" style="rounded=0;whiteSpace=wrap;html=1;fillColor=#d5e8d4;strokeColor=#82b366;" vertex="1" parent="1">
          <mxGeometry x="428" y="135" width="50" height="20" as="geometry" />
        </mxCell>
        <mxCell id="XY9Zo-zFPmOXI-2DgoHU-27" value="&lt;span style=&quot;color: rgb(51 , 51 , 51) ; font-family: &amp;#34;helvetica neue&amp;#34; , &amp;#34;helvetica&amp;#34; , &amp;#34;arial&amp;#34; , &amp;#34;hiragino sans gb&amp;#34; , &amp;#34;hiragino sans gb w3&amp;#34; , &amp;#34;microsoft yahei ui&amp;#34; , &amp;#34;microsoft yahei&amp;#34; , sans-serif ; font-size: 13px ; text-align: left&quot;&gt;forth&lt;/span&gt;" style="rounded=0;whiteSpace=wrap;html=1;fillColor=#d5e8d4;strokeColor=#82b366;" vertex="1" parent="1">
          <mxGeometry x="483" y="135" width="50" height="20" as="geometry" />
        </mxCell>
        <mxCell id="XY9Zo-zFPmOXI-2DgoHU-28" value="&lt;span style=&quot;color: rgb(51 , 51 , 51) ; font-family: &amp;#34;helvetica neue&amp;#34; , &amp;#34;helvetica&amp;#34; , &amp;#34;arial&amp;#34; , &amp;#34;hiragino sans gb&amp;#34; , &amp;#34;hiragino sans gb w3&amp;#34; , &amp;#34;microsoft yahei ui&amp;#34; , &amp;#34;microsoft yahei&amp;#34; , sans-serif ; font-size: 13px ; text-align: left&quot;&gt;....&lt;/span&gt;" style="rounded=0;whiteSpace=wrap;html=1;fillColor=#d5e8d4;strokeColor=#82b366;" vertex="1" parent="1">
          <mxGeometry x="538" y="135" width="50" height="20" as="geometry" />
        </mxCell>
        <mxCell id="XY9Zo-zFPmOXI-2DgoHU-31" value="" style="edgeStyle=orthogonalEdgeStyle;rounded=0;orthogonalLoop=1;jettySize=auto;html=1;fontSize=18;strokeColor=#82b366;fillColor=#d5e8d4;dashed=1;" edge="1" parent="1" source="XY9Zo-zFPmOXI-2DgoHU-29" target="XY9Zo-zFPmOXI-2DgoHU-2">
          <mxGeometry relative="1" as="geometry">
            <Array as="points">
              <mxPoint x="279" y="625" />
            </Array>
          </mxGeometry>
        </mxCell>
        <mxCell id="XY9Zo-zFPmOXI-2DgoHU-32" style="edgeStyle=orthogonalEdgeStyle;rounded=0;orthogonalLoop=1;jettySize=auto;html=1;dashed=1;fontSize=18;strokeColor=#82b366;fillColor=#d5e8d4;" edge="1" parent="1" source="XY9Zo-zFPmOXI-2DgoHU-29">
          <mxGeometry relative="1" as="geometry">
            <mxPoint x="230" y="240" as="targetPoint" />
            <Array as="points">
              <mxPoint x="90" y="625" />
              <mxPoint x="90" y="240" />
              <mxPoint x="190" y="240" />
            </Array>
          </mxGeometry>
        </mxCell>
        <mxCell id="XY9Zo-zFPmOXI-2DgoHU-29" value="Done" style="text;html=1;resizable=0;autosize=1;align=center;verticalAlign=middle;points=[];rounded=0;fontSize=18;fillColor=#d5e8d4;strokeColor=#82b366;" vertex="1" parent="1">
          <mxGeometry x="180" y="610" width="60" height="30" as="geometry" />
        </mxCell>
        <mxCell id="XY9Zo-zFPmOXI-2DgoHU-34" value="Complete&lt;br style=&quot;font-size: 18px&quot;&gt;1000/1000" style="text;html=1;resizable=0;autosize=1;align=center;verticalAlign=middle;points=[];fillColor=#d5e8d4;strokeColor=#82b366;rounded=0;fontSize=18;dashed=1;" vertex="1" parent="1">
          <mxGeometry x="40" y="450" width="100" height="50" as="geometry" />
        </mxCell>
        <mxCell id="XY9Zo-zFPmOXI-2DgoHU-37" value="Done" style="text;html=1;resizable=0;autosize=1;align=center;verticalAlign=middle;points=[];rounded=0;fontSize=18;fillColor=#f5f5f5;strokeColor=#666666;fontColor=#999999;" vertex="1" parent="1">
          <mxGeometry x="588" y="596" width="60" height="30" as="geometry" />
        </mxCell>
      </root>
    </mxGraphModel>
  </diagram>
</mxfile>
